# xmcd CD database generated by RipIT
#
# Track frame offsets:
# 150
# 24572
# 57315
# 79600
# 99205
# 151002
# 173610
#
# Disc length: 2627 seconds
#
# Revision: 1
# Processed by: cddbd v1.5.1PL2 Copyright (c) Steve Scherf et al.
# Submitted via: RipIT 3.3.3 www.suwald.com/ripit/ripit.html at So Mai 21 15:45:09 CEST 2006
#
DISCID=3f0a4107
DTITLE=Mal Waldron - MAL%4
DYEAR=1958
DGENRE=Jazz
TTITLE0=Splidium-Dow
TTITLE1=Like someone in love
TTITLE2=Get happy
TTITLE3=J.M.'s Dream Doll
TTITLE4=Too close for comfort
TTITLE5=By my self
TTITLE6=Love Span
EXTD=YEAR: 1958\n
EXTT0=
EXTT1=
EXTT2=
EXTT3=
EXTT4=
EXTT5=
EXTT6=
PLAYORDER=
